<svg width="115" height="115" viewBox="0 0 115 115" fill="none" xmlns="http://www.w3.org/2000/svg">
<g filter="url(#filter0_d_2360_17876)">
<path d="M18 54.5C18 33.7893 34.7893 17 55.5 17V17C76.2107 17 93 33.7893 93 54.5V82C93 87.5228 88.5228 92 83 92H28C22.4772 92 18 87.5228 18 82V54.5Z" fill="#343A40"/>
</g>
<path d="M18 51.1418C18 32.2858 33.2858 17 52.1418 17H58.8582C77.7142 17 93 32.2858 93 51.1418V51.1418H18V51.1418Z" fill="#1C2127"/>
<path d="M52.4639 29.6326V39.4326H50.1959V31.4526H48.2359V29.6326H52.4639ZM60.8723 34.2806C61.3576 34.5233 61.7263 34.8406 61.9783 35.2326C62.2396 35.6246 62.3703 36.0773 62.3703 36.5906C62.3703 37.1973 62.1976 37.7293 61.8523 38.1866C61.5069 38.6346 61.0216 38.9846 60.3963 39.2366C59.7709 39.4793 59.0476 39.6006 58.2263 39.6006C57.4049 39.6006 56.6816 39.4793 56.0563 39.2366C55.4403 38.9846 54.9596 38.6346 54.6143 38.1866C54.2783 37.7293 54.1103 37.1973 54.1103 36.5906C54.1103 36.0773 54.2363 35.6246 54.4883 35.2326C54.7496 34.8406 55.1183 34.5233 55.5943 34.2806C55.2303 34.0566 54.9503 33.7766 54.7543 33.4406C54.5583 33.0953 54.4603 32.7033 54.4603 32.2646C54.4603 31.6953 54.6189 31.2006 54.9363 30.7806C55.2536 30.3606 55.6969 30.0386 56.2663 29.8146C56.8356 29.5813 57.4889 29.4646 58.2263 29.4646C58.9729 29.4646 59.6309 29.5813 60.2003 29.8146C60.7789 30.0386 61.2269 30.3606 61.5443 30.7806C61.8616 31.2006 62.0203 31.6953 62.0203 32.2646C62.0203 32.7033 61.9223 33.0953 61.7263 33.4406C61.5303 33.7766 61.2456 34.0566 60.8723 34.2806ZM58.2263 31.1306C57.7689 31.1306 57.4003 31.2426 57.1203 31.4666C56.8496 31.6813 56.7143 31.98 56.7143 32.3626C56.7143 32.736 56.8496 33.03 57.1203 33.2446C57.3909 33.4593 57.7596 33.5666 58.2263 33.5666C58.6929 33.5666 59.0663 33.4593 59.3463 33.2446C59.6263 33.03 59.7663 32.736 59.7663 32.3626C59.7663 31.98 59.6263 31.6813 59.3463 31.4666C59.0663 31.2426 58.6929 31.1306 58.2263 31.1306ZM58.2263 37.9346C58.7956 37.9346 59.2436 37.8086 59.5703 37.5566C59.9063 37.2953 60.0743 36.95 60.0743 36.5206C60.0743 36.0913 59.9063 35.7506 59.5703 35.4986C59.2436 35.2466 58.7956 35.1206 58.2263 35.1206C57.6663 35.1206 57.2229 35.2466 56.8963 35.4986C56.5696 35.7506 56.4063 36.0913 56.4063 36.5206C56.4063 36.9593 56.5696 37.3046 56.8963 37.5566C57.2229 37.8086 57.6663 37.9346 58.2263 37.9346Z" fill="white"/>
<path d="M48.5157 73.1831C47.7037 73.1831 46.9804 72.9825 46.3457 72.5811C45.711 72.1798 45.2117 71.6011 44.8477 70.8451C44.493 70.0798 44.3157 69.1698 44.3157 68.1151C44.3157 67.0605 44.493 66.1551 44.8477 65.3991C45.2117 64.6338 45.711 64.0505 46.3457 63.6491C46.9804 63.2478 47.7037 63.0471 48.5157 63.0471C49.3277 63.0471 50.051 63.2478 50.6857 63.6491C51.3204 64.0505 51.815 64.6338 52.1697 65.3991C52.5337 66.1551 52.7157 67.0605 52.7157 68.1151C52.7157 69.1698 52.5337 70.0798 52.1697 70.8451C51.815 71.6011 51.3204 72.1798 50.6857 72.5811C50.051 72.9825 49.3277 73.1831 48.5157 73.1831ZM48.5157 71.2651C49.113 71.2651 49.5797 71.0085 49.9157 70.4951C50.261 69.9818 50.4337 69.1885 50.4337 68.1151C50.4337 67.0418 50.261 66.2485 49.9157 65.7351C49.5797 65.2218 49.113 64.9651 48.5157 64.9651C47.9277 64.9651 47.461 65.2218 47.1157 65.7351C46.7797 66.2485 46.6117 67.0418 46.6117 68.1151C46.6117 69.1885 46.7797 69.9818 47.1157 70.4951C47.461 71.0085 47.9277 71.2651 48.5157 71.2651ZM57.1562 61.2271H59.1022L54.4822 74.4151H52.5362L57.1562 61.2271ZM67.0983 70.9571H65.5023V73.0151H63.2903V70.9571H58.0123V69.4311L62.6323 63.2151H65.0123L60.7283 69.1091H63.3603V67.2751H65.5023V69.1091H67.0983V70.9571Z" fill="white"/>
<defs>
<filter id="filter0_d_2360_17876" x="0" y="0" width="115" height="115" filterUnits="userSpaceOnUse" color-interpolation-filters="sRGB">
<feFlood flood-opacity="0" result="BackgroundImageFix"/>
<feColorMatrix in="SourceAlpha" type="matrix" values="0 0 0 0 0 0 0 0 0 0 0 0 0 0 0 0 0 0 127 0" result="hardAlpha"/>
<feOffset dx="2" dy="3"/>
<feGaussianBlur stdDeviation="10"/>
<feColorMatrix type="matrix" values="0 0 0 0 0 0 0 0 0 0 0 0 0 0 0 0 0 0 0.25 0"/>
<feBlend mode="normal" in2="BackgroundImageFix" result="effect1_dropShadow_2360_17876"/>
<feBlend mode="normal" in="SourceGraphic" in2="effect1_dropShadow_2360_17876" result="shape"/>
</filter>
</defs>
</svg>
