<svg width="567" height="63" viewBox="0 0 567 63" fill="none" xmlns="http://www.w3.org/2000/svg">
<path d="M0 10C0 4.47715 4.47715 0 10 0H187V63H10C4.47715 63 0 58.5228 0 53V10Z" fill="#343A40"/>
<path d="M380 0H557C562.523 0 567 4.47715 567 10V53C567 58.5228 562.523 63 557 63H380V0Z" fill="#E5E5E5"/>
<path d="M190 0H377V63H190V0Z" fill="#E5E5E5"/>
<path d="M61.9824 40.4818L58.5504 35.5618C58.4064 35.5778 58.1904 35.5858 57.9024 35.5858H54.1104V40.4818H50.9904V23.6818H57.9024C59.3584 23.6818 60.6224 23.9218 61.6944 24.4018C62.7824 24.8818 63.6144 25.5698 64.1904 26.4658C64.7664 27.3618 65.0544 28.4258 65.0544 29.6578C65.0544 30.9218 64.7424 32.0098 64.1184 32.9218C63.5104 33.8338 62.6304 34.5138 61.4784 34.9618L65.3424 40.4818H61.9824ZM61.9104 29.6578C61.9104 28.5858 61.5584 27.7618 60.8544 27.1858C60.1504 26.6098 59.1184 26.3218 57.7584 26.3218H54.1104V33.0178H57.7584C59.1184 33.0178 60.1504 32.7298 60.8544 32.1538C61.5584 31.5618 61.9104 30.7298 61.9104 29.6578ZM74.0171 40.6498C72.7211 40.6498 71.5531 40.3698 70.5131 39.8098C69.4731 39.2498 68.6571 38.4738 68.0651 37.4818C67.4891 36.4738 67.2011 35.3378 67.2011 34.0738C67.2011 32.8098 67.4891 31.6818 68.0651 30.6898C68.6571 29.6978 69.4731 28.9218 70.5131 28.3618C71.5531 27.8018 72.7211 27.5218 74.0171 27.5218C75.3291 27.5218 76.5051 27.8018 77.5451 28.3618C78.5851 28.9218 79.3931 29.6978 79.9691 30.6898C80.5611 31.6818 80.8571 32.8098 80.8571 34.0738C80.8571 35.3378 80.5611 36.4738 79.9691 37.4818C79.3931 38.4738 78.5851 39.2498 77.5451 39.8098C76.5051 40.3698 75.3291 40.6498 74.0171 40.6498ZM74.0171 38.0818C75.1211 38.0818 76.0331 37.7138 76.7531 36.9778C77.4731 36.2418 77.8331 35.2738 77.8331 34.0738C77.8331 32.8738 77.4731 31.9058 76.7531 31.1698C76.0331 30.4338 75.1211 30.0658 74.0171 30.0658C72.9131 30.0658 72.0011 30.4338 71.2811 31.1698C70.5771 31.9058 70.2251 32.8738 70.2251 34.0738C70.2251 35.2738 70.5771 36.2418 71.2811 36.9778C72.0011 37.7138 72.9131 38.0818 74.0171 38.0818ZM89.4858 40.6498C88.1898 40.6498 87.0218 40.3698 85.9818 39.8098C84.9418 39.2498 84.1258 38.4738 83.5338 37.4818C82.9578 36.4738 82.6698 35.3378 82.6698 34.0738C82.6698 32.8098 82.9578 31.6818 83.5338 30.6898C84.1258 29.6978 84.9418 28.9218 85.9818 28.3618C87.0218 27.8018 88.1898 27.5218 89.4858 27.5218C90.7978 27.5218 91.9738 27.8018 93.0138 28.3618C94.0538 28.9218 94.8618 29.6978 95.4378 30.6898C96.0298 31.6818 96.3258 32.8098 96.3258 34.0738C96.3258 35.3378 96.0298 36.4738 95.4378 37.4818C94.8618 38.4738 94.0538 39.2498 93.0138 39.8098C91.9738 40.3698 90.7978 40.6498 89.4858 40.6498ZM89.4858 38.0818C90.5898 38.0818 91.5018 37.7138 92.2218 36.9778C92.9418 36.2418 93.3018 35.2738 93.3018 34.0738C93.3018 32.8738 92.9418 31.9058 92.2218 31.1698C91.5018 30.4338 90.5898 30.0658 89.4858 30.0658C88.3818 30.0658 87.4698 30.4338 86.7498 31.1698C86.0458 31.9058 85.6938 32.8738 85.6938 34.0738C85.6938 35.2738 86.0458 36.2418 86.7498 36.9778C87.4698 37.7138 88.3818 38.0818 89.4858 38.0818ZM115.371 27.5218C116.987 27.5218 118.267 27.9938 119.211 28.9378C120.155 29.8658 120.627 31.2658 120.627 33.1378V40.4818H117.627V33.5218C117.627 32.4018 117.379 31.5618 116.883 31.0018C116.387 30.4258 115.675 30.1378 114.747 30.1378C113.739 30.1378 112.931 30.4738 112.323 31.1458C111.715 31.8018 111.411 32.7458 111.411 33.9778V40.4818H108.411V33.5218C108.411 32.4018 108.163 31.5618 107.667 31.0018C107.171 30.4258 106.459 30.1378 105.531 30.1378C104.507 30.1378 103.691 30.4658 103.083 31.1218C102.491 31.7778 102.195 32.7298 102.195 33.9778V40.4818H99.1946V27.6658H102.051V29.2978C102.531 28.7218 103.131 28.2818 103.851 27.9778C104.571 27.6738 105.371 27.5218 106.251 27.5218C107.211 27.5218 108.059 27.7058 108.795 28.0738C109.547 28.4258 110.139 28.9538 110.571 29.6578C111.099 28.9858 111.779 28.4658 112.611 28.0978C113.443 27.7138 114.363 27.5218 115.371 27.5218ZM135.989 23.6818V40.4818H132.869V26.2978H129.317V23.6818H135.989Z" fill="white"/>
<path d="M439.568 40.4818L436.136 35.5618C435.992 35.5778 435.776 35.5858 435.488 35.5858H431.696V40.4818H428.576V23.6818H435.488C436.944 23.6818 438.208 23.9218 439.28 24.4018C440.368 24.8818 441.2 25.5698 441.776 26.4658C442.352 27.3618 442.64 28.4258 442.64 29.6578C442.64 30.9218 442.328 32.0098 441.704 32.9218C441.096 33.8338 440.216 34.5138 439.064 34.9618L442.928 40.4818H439.568ZM439.496 29.6578C439.496 28.5858 439.144 27.7618 438.44 27.1858C437.736 26.6098 436.704 26.3218 435.344 26.3218H431.696V33.0178H435.344C436.704 33.0178 437.736 32.7298 438.44 32.1538C439.144 31.5618 439.496 30.7298 439.496 29.6578ZM451.603 40.6498C450.307 40.6498 449.139 40.3698 448.099 39.8098C447.059 39.2498 446.243 38.4738 445.651 37.4818C445.075 36.4738 444.787 35.3378 444.787 34.0738C444.787 32.8098 445.075 31.6818 445.651 30.6898C446.243 29.6978 447.059 28.9218 448.099 28.3618C449.139 27.8018 450.307 27.5218 451.603 27.5218C452.915 27.5218 454.091 27.8018 455.131 28.3618C456.171 28.9218 456.979 29.6978 457.555 30.6898C458.147 31.6818 458.443 32.8098 458.443 34.0738C458.443 35.3378 458.147 36.4738 457.555 37.4818C456.979 38.4738 456.171 39.2498 455.131 39.8098C454.091 40.3698 452.915 40.6498 451.603 40.6498ZM451.603 38.0818C452.707 38.0818 453.619 37.7138 454.339 36.9778C455.059 36.2418 455.419 35.2738 455.419 34.0738C455.419 32.8738 455.059 31.9058 454.339 31.1698C453.619 30.4338 452.707 30.0658 451.603 30.0658C450.499 30.0658 449.587 30.4338 448.867 31.1698C448.163 31.9058 447.811 32.8738 447.811 34.0738C447.811 35.2738 448.163 36.2418 448.867 36.9778C449.587 37.7138 450.499 38.0818 451.603 38.0818ZM467.072 40.6498C465.776 40.6498 464.608 40.3698 463.568 39.8098C462.528 39.2498 461.712 38.4738 461.12 37.4818C460.544 36.4738 460.256 35.3378 460.256 34.0738C460.256 32.8098 460.544 31.6818 461.12 30.6898C461.712 29.6978 462.528 28.9218 463.568 28.3618C464.608 27.8018 465.776 27.5218 467.072 27.5218C468.384 27.5218 469.56 27.8018 470.6 28.3618C471.64 28.9218 472.448 29.6978 473.024 30.6898C473.616 31.6818 473.912 32.8098 473.912 34.0738C473.912 35.3378 473.616 36.4738 473.024 37.4818C472.448 38.4738 471.64 39.2498 470.6 39.8098C469.56 40.3698 468.384 40.6498 467.072 40.6498ZM467.072 38.0818C468.176 38.0818 469.088 37.7138 469.808 36.9778C470.528 36.2418 470.888 35.2738 470.888 34.0738C470.888 32.8738 470.528 31.9058 469.808 31.1698C469.088 30.4338 468.176 30.0658 467.072 30.0658C465.968 30.0658 465.056 30.4338 464.336 31.1698C463.632 31.9058 463.28 32.8738 463.28 34.0738C463.28 35.2738 463.632 36.2418 464.336 36.9778C465.056 37.7138 465.968 38.0818 467.072 38.0818ZM492.957 27.5218C494.573 27.5218 495.853 27.9938 496.797 28.9378C497.741 29.8658 498.213 31.2658 498.213 33.1378V40.4818H495.213V33.5218C495.213 32.4018 494.965 31.5618 494.469 31.0018C493.973 30.4258 493.261 30.1378 492.333 30.1378C491.325 30.1378 490.517 30.4738 489.909 31.1458C489.301 31.8018 488.997 32.7458 488.997 33.9778V40.4818H485.997V33.5218C485.997 32.4018 485.749 31.5618 485.253 31.0018C484.757 30.4258 484.045 30.1378 483.117 30.1378C482.093 30.1378 481.277 30.4658 480.669 31.1218C480.077 31.7778 479.781 32.7298 479.781 33.9778V40.4818H476.781V27.6658H479.637V29.2978C480.117 28.7218 480.717 28.2818 481.437 27.9778C482.157 27.6738 482.957 27.5218 483.837 27.5218C484.797 27.5218 485.645 27.7058 486.381 28.0738C487.133 28.4258 487.725 28.9538 488.157 29.6578C488.685 28.9858 489.365 28.4658 490.197 28.0978C491.029 27.7138 491.949 27.5218 492.957 27.5218ZM514.919 30.6178C516.471 30.8098 517.655 31.3378 518.471 32.2018C519.287 33.0658 519.695 34.1458 519.695 35.4418C519.695 36.4178 519.447 37.3058 518.951 38.1058C518.455 38.9058 517.703 39.5458 516.695 40.0258C515.703 40.4898 514.487 40.7218 513.047 40.7218C511.847 40.7218 510.687 40.5538 509.567 40.2178C508.463 39.8658 507.519 39.3858 506.735 38.7778L508.079 36.3538C508.687 36.8658 509.423 37.2738 510.287 37.5778C511.167 37.8658 512.071 38.0098 512.999 38.0098C514.103 38.0098 514.967 37.7858 515.591 37.3378C516.231 36.8738 516.551 36.2498 516.551 35.4658C516.551 34.6818 516.247 34.0738 515.639 33.6418C515.047 33.1938 514.135 32.9698 512.903 32.9698H511.367V30.8338L515.183 26.2978H507.551V23.6818H518.999V25.7698L514.919 30.6178Z" fill="#343A40"/>
<path d="M249.568 40.4818L246.136 35.5618C245.992 35.5778 245.776 35.5858 245.488 35.5858H241.696V40.4818H238.576V23.6818H245.488C246.944 23.6818 248.208 23.9218 249.28 24.4018C250.368 24.8818 251.2 25.5698 251.776 26.4658C252.352 27.3618 252.64 28.4258 252.64 29.6578C252.64 30.9218 252.328 32.0098 251.704 32.9218C251.096 33.8338 250.216 34.5138 249.064 34.9618L252.928 40.4818H249.568ZM249.496 29.6578C249.496 28.5858 249.144 27.7618 248.44 27.1858C247.736 26.6098 246.704 26.3218 245.344 26.3218H241.696V33.0178H245.344C246.704 33.0178 247.736 32.7298 248.44 32.1538C249.144 31.5618 249.496 30.7298 249.496 29.6578ZM261.603 40.6498C260.307 40.6498 259.139 40.3698 258.099 39.8098C257.059 39.2498 256.243 38.4738 255.651 37.4818C255.075 36.4738 254.787 35.3378 254.787 34.0738C254.787 32.8098 255.075 31.6818 255.651 30.6898C256.243 29.6978 257.059 28.9218 258.099 28.3618C259.139 27.8018 260.307 27.5218 261.603 27.5218C262.915 27.5218 264.091 27.8018 265.131 28.3618C266.171 28.9218 266.979 29.6978 267.555 30.6898C268.147 31.6818 268.443 32.8098 268.443 34.0738C268.443 35.3378 268.147 36.4738 267.555 37.4818C266.979 38.4738 266.171 39.2498 265.131 39.8098C264.091 40.3698 262.915 40.6498 261.603 40.6498ZM261.603 38.0818C262.707 38.0818 263.619 37.7138 264.339 36.9778C265.059 36.2418 265.419 35.2738 265.419 34.0738C265.419 32.8738 265.059 31.9058 264.339 31.1698C263.619 30.4338 262.707 30.0658 261.603 30.0658C260.499 30.0658 259.587 30.4338 258.867 31.1698C258.163 31.9058 257.811 32.8738 257.811 34.0738C257.811 35.2738 258.163 36.2418 258.867 36.9778C259.587 37.7138 260.499 38.0818 261.603 38.0818ZM277.072 40.6498C275.776 40.6498 274.608 40.3698 273.568 39.8098C272.528 39.2498 271.712 38.4738 271.12 37.4818C270.544 36.4738 270.256 35.3378 270.256 34.0738C270.256 32.8098 270.544 31.6818 271.12 30.6898C271.712 29.6978 272.528 28.9218 273.568 28.3618C274.608 27.8018 275.776 27.5218 277.072 27.5218C278.384 27.5218 279.56 27.8018 280.6 28.3618C281.64 28.9218 282.448 29.6978 283.024 30.6898C283.616 31.6818 283.912 32.8098 283.912 34.0738C283.912 35.3378 283.616 36.4738 283.024 37.4818C282.448 38.4738 281.64 39.2498 280.6 39.8098C279.56 40.3698 278.384 40.6498 277.072 40.6498ZM277.072 38.0818C278.176 38.0818 279.088 37.7138 279.808 36.9778C280.528 36.2418 280.888 35.2738 280.888 34.0738C280.888 32.8738 280.528 31.9058 279.808 31.1698C279.088 30.4338 278.176 30.0658 277.072 30.0658C275.968 30.0658 275.056 30.4338 274.336 31.1698C273.632 31.9058 273.28 32.8738 273.28 34.0738C273.28 35.2738 273.632 36.2418 274.336 36.9778C275.056 37.7138 275.968 38.0818 277.072 38.0818ZM302.957 27.5218C304.573 27.5218 305.853 27.9938 306.797 28.9378C307.741 29.8658 308.213 31.2658 308.213 33.1378V40.4818H305.213V33.5218C305.213 32.4018 304.965 31.5618 304.469 31.0018C303.973 30.4258 303.261 30.1378 302.333 30.1378C301.325 30.1378 300.517 30.4738 299.909 31.1458C299.301 31.8018 298.997 32.7458 298.997 33.9778V40.4818H295.997V33.5218C295.997 32.4018 295.749 31.5618 295.253 31.0018C294.757 30.4258 294.045 30.1378 293.117 30.1378C292.093 30.1378 291.277 30.4658 290.669 31.1218C290.077 31.7778 289.781 32.7298 289.781 33.9778V40.4818H286.781V27.6658H289.637V29.2978C290.117 28.7218 290.717 28.2818 291.437 27.9778C292.157 27.6738 292.957 27.5218 293.837 27.5218C294.797 27.5218 295.645 27.7058 296.381 28.0738C297.133 28.4258 297.725 28.9538 298.157 29.6578C298.685 28.9858 299.365 28.4658 300.197 28.0978C301.029 27.7138 301.949 27.5218 302.957 27.5218ZM329.935 37.8418V40.4818H317.551V38.3938L324.223 32.0578C324.975 31.3378 325.479 30.7138 325.735 30.1858C326.007 29.6418 326.143 29.1058 326.143 28.5778C326.143 27.7938 325.879 27.1938 325.351 26.7778C324.823 26.3618 324.047 26.1538 323.023 26.1538C321.311 26.1538 319.999 26.7378 319.087 27.9058L316.903 26.2258C317.559 25.3458 318.439 24.6658 319.543 24.1858C320.663 23.6898 321.911 23.4418 323.287 23.4418C325.111 23.4418 326.567 23.8738 327.655 24.7378C328.743 25.6018 329.287 26.7778 329.287 28.2658C329.287 29.1778 329.095 30.0338 328.711 30.8338C328.327 31.6338 327.591 32.5458 326.503 33.5698L322.015 37.8418H329.935Z" fill="#343A40"/>
</svg>
